<svg width="25" height="25" viewBox="0 0 25 25" fill="none" xmlns="http://www.w3.org/2000/svg">
<mask id="mask0_364_25" style="mask-type:alpha" maskUnits="userSpaceOnUse" x="0" y="0" width="25" height="25">
<rect x="0.946777" y="0.845703" width="24" height="24" fill="#D9D9D9"/>
</mask>
<g mask="url(#mask0_364_25)">
<path d="M12.9469 21.2453C10.6133 21.2453 8.63007 20.4285 6.99727 18.7949C5.36367 17.1621 4.54688 15.1789 4.54688 12.8453C4.54688 10.5117 5.36367 8.52851 6.99727 6.89571C8.63007 5.26211 10.6133 4.44531 12.9469 4.44531C13.1637 4.44531 13.3761 4.45371 13.5841 4.47051C13.7929 4.48731 14.0053 4.51211 14.2213 4.54491C13.5717 5.02891 13.0553 5.62891 12.6721 6.34491C12.2889 7.06171 12.0973 7.82851 12.0973 8.64531C12.0973 10.0621 12.5845 11.2581 13.5589 12.2333C14.5341 13.2077 15.7301 13.6949 17.1469 13.6949C17.9637 13.6949 18.7305 13.5033 19.4473 13.1201C20.1633 12.7369 20.7633 12.2205 21.2473 11.5709C21.2801 11.7869 21.3049 11.9993 21.3217 12.2081C21.3385 12.4161 21.3469 12.6285 21.3469 12.8453C21.3469 15.1789 20.5301 17.1621 18.8965 18.7949C17.2637 20.4285 15.2805 21.2453 12.9469 21.2453Z" fill="white"/>
</g>
</svg>
