<svg width="17" height="17" viewBox="0 0 17 17" fill="none" xmlns="http://www.w3.org/2000/svg">
<path d="M12.168 12.0359L15.0234 14.8905L14.08 15.8339L11.2254 12.9785C10.1632 13.83 8.84203 14.2931 7.4807 14.2912C4.1687 14.2912 1.4807 11.6032 1.4807 8.29121C1.4807 4.97921 4.1687 2.29121 7.4807 2.29121C10.7927 2.29121 13.4807 4.97921 13.4807 8.29121C13.4826 9.65254 13.0195 10.9737 12.168 12.0359ZM10.8307 11.5412C11.6768 10.6711 12.1493 9.50483 12.1474 8.29121C12.1474 5.71254 10.0587 3.62454 7.4807 3.62454C4.90203 3.62454 2.81403 5.71254 2.81403 8.29121C2.81403 10.8692 4.90203 12.9579 7.4807 12.9579C8.69432 12.9598 9.86062 12.4873 10.7307 11.6412L10.8307 11.5412Z" fill="black"/>
</svg>
