<svg width="32" height="33" viewBox="0 0 32 33" fill="none" xmlns="http://www.w3.org/2000/svg">
<path d="M16 29.8333C8.636 29.8333 2.66667 23.864 2.66667 16.5C2.66667 9.136 8.636 3.16667 16 3.16667C23.364 3.16667 29.3333 9.136 29.3333 16.5C29.3333 23.864 23.364 29.8333 16 29.8333ZM14.1627 11.72C14.0824 11.6665 13.9892 11.6357 13.8928 11.631C13.7965 11.6262 13.7006 11.6477 13.6155 11.6931C13.5304 11.7386 13.4592 11.8062 13.4095 11.8889C13.3599 11.9716 13.3335 12.0662 13.3333 12.1627V20.8373C13.3335 20.9338 13.3599 21.0284 13.4095 21.1111C13.4592 21.1938 13.5304 21.2614 13.6155 21.3069C13.7006 21.3523 13.7965 21.3738 13.8928 21.369C13.9892 21.3643 14.0824 21.3335 14.1627 21.28L20.668 16.944C20.7412 16.8953 20.8011 16.8293 20.8426 16.7518C20.8841 16.6744 20.9059 16.5879 20.9059 16.5C20.9059 16.4121 20.8841 16.3256 20.8426 16.2482C20.8011 16.1707 20.7412 16.1047 20.668 16.056L14.1613 11.72H14.1627Z" fill="black"/>
</svg>
