<svg width="24" height="24" viewBox="0 0 24 24" fill="none" xmlns="http://www.w3.org/2000/svg">
<circle cx="12" cy="12" r="12" fill="#6173F4"/>
<path d="M16.642 10.814L14.698 17H13.36C13.292 17 13.23 16.978 13.174 16.934C13.122 16.89 13.082 16.816 13.054 16.712L12.046 13.364C12.006 13.236 11.97 13.11 11.938 12.986C11.91 12.858 11.884 12.73 11.86 12.602C11.832 12.73 11.802 12.86 11.77 12.992C11.742 13.12 11.708 13.248 11.668 13.376L10.648 16.712C10.592 16.904 10.472 17 10.288 17H9.016L7.072 10.814H8.392C8.512 10.814 8.612 10.842 8.692 10.898C8.776 10.954 8.832 11.026 8.86 11.114L9.622 14.174C9.67 14.37 9.712 14.56 9.748 14.744C9.784 14.928 9.818 15.11 9.85 15.29C9.898 15.11 9.948 14.928 10 14.744C10.056 14.56 10.114 14.37 10.174 14.174L11.08 11.102C11.108 11.018 11.162 10.948 11.242 10.892C11.322 10.836 11.416 10.808 11.524 10.808H12.256C12.372 10.808 12.47 10.836 12.55 10.892C12.634 10.948 12.69 11.018 12.718 11.102L13.594 14.174C13.65 14.366 13.704 14.556 13.756 14.744C13.808 14.928 13.856 15.114 13.9 15.302C13.932 15.118 13.966 14.934 14.002 14.75C14.042 14.562 14.088 14.37 14.14 14.174L14.938 11.114C14.966 11.026 15.02 10.954 15.1 10.898C15.18 10.842 15.274 10.814 15.382 10.814H16.642Z" fill="white"/>
<circle cx="7" cy="8" r="1" fill="white"/>
<circle cx="12" cy="8" r="1" fill="white"/>
<circle cx="17" cy="8" r="1" fill="white"/>
</svg>
