<svg width="25" height="25" viewBox="0 0 25 25" fill="none" xmlns="http://www.w3.org/2000/svg">
<path d="M15.2373 10.7979C14.4073 10.7979 13.7373 10.1279 13.7373 9.29785V4.29785C13.7373 3.46785 14.4073 2.79785 15.2373 2.79785C16.0673 2.79785 16.7373 3.46785 16.7373 4.29785V9.29785C16.7373 10.1279 16.0673 10.7979 15.2373 10.7979Z" stroke="white" stroke-width="2" stroke-linecap="round" stroke-linejoin="round"/>
<path d="M21.2373 10.7979H19.7373V9.29785C19.7373 8.46785 20.4073 7.79785 21.2373 7.79785C22.0673 7.79785 22.7373 8.46785 22.7373 9.29785C22.7373 10.1279 22.0673 10.7979 21.2373 10.7979Z" stroke="white" stroke-width="2" stroke-linecap="round" stroke-linejoin="round"/>
<path d="M10.2373 14.7979C11.0673 14.7979 11.7373 15.4679 11.7373 16.2979V21.2979C11.7373 22.1279 11.0673 22.7979 10.2373 22.7979C9.4073 22.7979 8.7373 22.1279 8.7373 21.2979V16.2979C8.7373 15.4679 9.4073 14.7979 10.2373 14.7979Z" stroke="white" stroke-width="2" stroke-linecap="round" stroke-linejoin="round"/>
<path d="M4.2373 14.7979H5.7373V16.2979C5.7373 17.1279 5.0673 17.7979 4.2373 17.7979C3.4073 17.7979 2.7373 17.1279 2.7373 16.2979C2.7373 15.4679 3.4073 14.7979 4.2373 14.7979Z" stroke="white" stroke-width="2" stroke-linecap="round" stroke-linejoin="round"/>
<path d="M14.7373 15.2979C14.7373 14.4679 15.4073 13.7979 16.2373 13.7979H21.2373C22.0673 13.7979 22.7373 14.4679 22.7373 15.2979C22.7373 16.1279 22.0673 16.7979 21.2373 16.7979H16.2373C15.4073 16.7979 14.7373 16.1279 14.7373 15.2979Z" stroke="white" stroke-width="2" stroke-linecap="round" stroke-linejoin="round"/>
<path d="M16.2373 19.7979H14.7373V21.2979C14.7373 22.1279 15.4073 22.7979 16.2373 22.7979C17.0673 22.7979 17.7373 22.1279 17.7373 21.2979C17.7373 20.4679 17.0673 19.7979 16.2373 19.7979Z" stroke="white" stroke-width="2" stroke-linecap="round" stroke-linejoin="round"/>
<path d="M10.7373 10.2979C10.7373 9.46785 10.0673 8.79785 9.2373 8.79785H4.2373C3.4073 8.79785 2.7373 9.46785 2.7373 10.2979C2.7373 11.1279 3.4073 11.7979 4.2373 11.7979H9.2373C10.0673 11.7979 10.7373 11.1279 10.7373 10.2979Z" stroke="white" stroke-width="2" stroke-linecap="round" stroke-linejoin="round"/>
<path d="M9.2373 5.79785H10.7373V4.29785C10.7373 3.46785 10.0673 2.79785 9.2373 2.79785C8.4073 2.79785 7.7373 3.46785 7.7373 4.29785C7.7373 5.12785 8.4073 5.79785 9.2373 5.79785Z" stroke="white" stroke-width="2" stroke-linecap="round" stroke-linejoin="round"/>
</svg>
