<svg width="25" height="25" viewBox="0 0 25 25" fill="none" xmlns="http://www.w3.org/2000/svg">
<mask id="mask0_266_7" style="mask-type:alpha" maskUnits="userSpaceOnUse" x="0" y="0" width="25" height="25">
<rect x="0.410767" y="0.86792" width="24" height="24" fill="#D9D9D9"/>
</mask>
<g mask="url(#mask0_266_7)">
<path d="M12.4108 2.86792C13.0608 2.86792 13.7274 2.93859 14.4108 3.07992C15.0941 3.22192 15.7608 3.43459 16.4108 3.71792L13.6608 4.99292C13.4608 4.95959 13.2568 4.93025 13.0488 4.90492C12.8401 4.88025 12.6274 4.86792 12.4108 4.86792C12.1774 4.86792 11.9524 4.87625 11.7358 4.89292C11.5191 4.90959 11.2941 4.94292 11.0608 4.99292C11.7608 6.15959 12.7108 7.09725 13.9108 7.80592C15.1108 8.51392 16.4441 8.86792 17.9108 8.86792H18.2608L19.1358 10.7929C17.6358 10.9763 16.0691 10.8013 14.4358 10.2679C12.8024 9.73459 11.3774 8.70125 10.1608 7.16792C9.57743 8.58459 8.78177 9.75125 7.77377 10.6679C6.7651 11.5846 5.6441 12.2679 4.41077 12.7179C4.41077 15.0346 5.1901 16.9723 6.74877 18.5309C8.30677 20.0889 10.1941 20.8679 12.4108 20.8679C14.6774 20.8679 16.5858 20.0679 18.1358 18.4679C19.6858 16.8679 20.4441 15.0013 20.4108 12.8679C20.4108 12.6346 20.4024 12.4303 20.3858 12.2549C20.3691 12.0803 20.3441 11.8679 20.3108 11.6179L21.5608 8.84292C21.8608 9.54292 22.0774 10.2179 22.2108 10.8679C22.3441 11.5179 22.4108 12.1846 22.4108 12.8679C22.4108 14.2013 22.1568 15.4719 21.6488 16.6799C21.1401 17.8886 20.4401 18.9513 19.5488 19.8679C18.6568 20.7846 17.6024 21.5139 16.3858 22.0559C15.1691 22.5973 13.8441 22.8679 12.4108 22.8679C11.0441 22.8679 9.75243 22.6053 8.53577 22.0799C7.3191 21.5553 6.25677 20.8386 5.34877 19.9299C4.4401 19.0219 3.72343 17.9596 3.19877 16.7429C2.67343 15.5263 2.41077 14.2346 2.41077 12.8679C2.41077 11.4346 2.68577 10.1053 3.23577 8.87992C3.78577 7.65525 4.52343 6.59725 5.44877 5.70592C6.37343 4.81392 7.43577 4.11792 8.63577 3.61792C9.83577 3.11792 11.0941 2.86792 12.4108 2.86792ZM9.41077 12.6179C9.76077 12.6179 10.0564 12.7389 10.2978 12.9809C10.5398 13.2223 10.6608 13.5179 10.6608 13.8679C10.6608 14.2179 10.5398 14.5136 10.2978 14.7549C10.0564 14.9969 9.76077 15.1179 9.41077 15.1179C9.06077 15.1179 8.7651 14.9969 8.52377 14.7549C8.28177 14.5136 8.16077 14.2179 8.16077 13.8679C8.16077 13.5179 8.28177 13.2223 8.52377 12.9809C8.7651 12.7389 9.06077 12.6179 9.41077 12.6179ZM15.4108 12.6179C15.7608 12.6179 16.0564 12.7389 16.2978 12.9809C16.5398 13.2223 16.6608 13.5179 16.6608 13.8679C16.6608 14.2179 16.5398 14.5136 16.2978 14.7549C16.0564 14.9969 15.7608 15.1179 15.4108 15.1179C15.0608 15.1179 14.7651 14.9969 14.5238 14.7549C14.2818 14.5136 14.1608 14.2179 14.1608 13.8679C14.1608 13.5179 14.2818 13.2223 14.5238 12.9809C14.7651 12.7389 15.0608 12.6179 15.4108 12.6179ZM19.9108 1.86792L21.0108 4.26792L23.4108 5.36792L21.0108 6.46792L19.9108 8.86792L18.8108 6.46792L16.4108 5.36792L18.8108 4.26792L19.9108 1.86792ZM4.83577 10.3429C5.68577 9.85959 6.42743 9.23459 7.06077 8.46792C7.6941 7.70125 8.1691 6.84292 8.48577 5.89292C7.63577 6.37625 6.8941 7.00125 6.26077 7.76792C5.62743 8.53459 5.15243 9.39292 4.83577 10.3429Z" fill="#575757"/>
</g>
</svg>
