<svg width="24" height="24" viewBox="0 0 24 24" fill="none" xmlns="http://www.w3.org/2000/svg">
<mask id="mask0_267_19" style="mask-type:alpha" maskUnits="userSpaceOnUse" x="0" y="0" width="24" height="24">
<rect width="24" height="24" fill="#D9D9D9"/>
</mask>
<g mask="url(#mask0_267_19)">
<path d="M12.05 23L7.35 14C6.16667 14.05 5.14567 13.7083 4.287 12.975C3.429 12.2417 3 11.25 3 10C3 9.15 3.246 8.38333 3.738 7.7C4.22933 7.01667 4.85 6.53333 5.6 6.25C5.9 4.73333 6.646 3.479 7.838 2.487C9.02933 1.49567 10.4167 1 12 1C13.5833 1 14.971 1.49567 16.163 2.487C17.3543 3.479 18.1 4.73333 18.4 6.25C19.15 6.53333 19.771 7.01667 20.263 7.7C20.7543 8.38333 21 9.15 21 10C21 11.25 20.5583 12.2417 19.675 12.975C18.7917 13.7083 17.8 14.05 16.7 14L12.05 23ZM7 12C7.25 12 7.49567 11.9583 7.737 11.875C7.979 11.7917 8.2 11.65 8.4 11.45L8.95 10.9L9.6 11.3C9.95 11.5333 10.3293 11.7083 10.738 11.825C11.146 11.9417 11.5667 12 12 12C12.4333 12 12.854 11.9417 13.262 11.825C13.6707 11.7083 14.05 11.5333 14.4 11.3L15.05 10.9L15.6 11.45C15.8 11.65 16.0207 11.7917 16.262 11.875C16.504 11.9583 16.75 12 17 12C17.55 12 18.021 11.804 18.413 11.412C18.8043 11.0207 19 10.55 19 10C19 9.5 18.8417 9.06267 18.525 8.688C18.2083 8.31267 17.8 8.08333 17.3 8L16.55 7.9L16.5 7.1C16.4167 5.95 15.9417 4.97933 15.075 4.188C14.2083 3.396 13.1833 3 12 3C10.8167 3 9.79167 3.396 8.925 4.188C8.05833 4.97933 7.58333 5.95 7.5 7.1L7.45 7.9L6.7 8.05C6.2 8.15 5.79167 8.375 5.475 8.725C5.15833 9.075 5 9.5 5 10C5 10.55 5.196 11.0207 5.588 11.412C5.97933 11.804 6.45 12 7 12ZM12.05 18.65L14.75 13.4C14.35 13.6 13.9167 13.75 13.45 13.85C12.9833 13.95 12.5 14 12 14C11.55 14 11.096 13.95 10.638 13.85C10.1793 13.75 9.73333 13.6 9.3 13.4L12.05 18.65Z" fill="black"/>
</g>
</svg>
