<svg width="48" height="48" viewBox="0 0 48 48" fill="none" xmlns="http://www.w3.org/2000/svg">
<path fill-rule="evenodd" clip-rule="evenodd" d="M19.4062 12.0005C19.4062 9.46343 21.4629 7.40674 23.9999 7.40674C26.537 7.40674 28.5937 9.46343 28.5937 12.0005V12.5941H19.4062V12.0005ZM16.5937 15.4066V18.0005C16.5937 18.7771 17.2233 19.4067 17.9999 19.4067C18.7766 19.4067 19.4062 18.7771 19.4062 18.0005V15.4066H28.5937V18.0005C28.5937 18.7771 29.2233 19.4067 29.9999 19.4067C30.7766 19.4067 31.4062 18.7771 31.4062 18.0005V15.4066H34.6977L36.4814 38.5941H11.5185L13.3022 15.4066H16.5937ZM16.5937 12.5941V12.0005C16.5937 7.91013 19.9096 4.59424 23.9999 4.59424C28.0903 4.59424 31.4062 7.91013 31.4062 12.0005V12.5941H35.9999C36.7348 12.5941 37.3457 13.1599 37.402 13.8925L39.402 39.8925C39.4321 40.2831 39.2979 40.6684 39.0317 40.9558C38.7656 41.2432 38.3916 41.4066 37.9999 41.4066H9.99994C9.60824 41.4066 9.23429 41.2432 8.96815 40.9558C8.702 40.6684 8.56779 40.2831 8.59784 39.8925L10.5978 13.8925C10.6542 13.1599 11.2651 12.5941 11.9999 12.5941H16.5937Z" fill="black"/>
</svg>
