<svg width="24" height="24" viewBox="0 0 24 24" fill="none" xmlns="http://www.w3.org/2000/svg">
<mask id="mask0_1_25" style="mask-type:alpha" maskUnits="userSpaceOnUse" x="0" y="0" width="24" height="24">
<rect width="24" height="24" fill="#D9D9D9"/>
</mask>
<g mask="url(#mask0_1_25)">
<path d="M4 17.625C3.58579 17.625 3.25 17.2892 3.25 16.875V16.875C3.25 16.4608 3.58579 16.125 4 16.125H20C20.4142 16.125 20.75 16.4608 20.75 16.875V16.875C20.75 17.2892 20.4142 17.625 20 17.625H4ZM9.58874 12.75C8.70008 12.75 8.54959 11.4781 9.41371 11.2707V11.2707C9.47104 11.257 9.52979 11.25 9.58874 11.25H20C20.4142 11.25 20.75 11.5858 20.75 12V12C20.75 12.4142 20.4142 12.75 20 12.75H9.58874ZM4 7.875C3.58579 7.875 3.25 7.53921 3.25 7.125V7.125C3.25 6.71079 3.58579 6.375 4 6.375H20C20.4142 6.375 20.75 6.71079 20.75 7.125V7.125C20.75 7.53921 20.4142 7.875 20 7.875H4Z" fill="#1C1B1F"/>
</g>
</svg>
