<svg width="24" height="24" viewBox="0 0 24 24" fill="none" xmlns="http://www.w3.org/2000/svg">
<mask id="mask0_267_43" style="mask-type:alpha" maskUnits="userSpaceOnUse" x="0" y="0" width="24" height="24">
<rect width="24" height="24" fill="#D9D9D9"/>
</mask>
<g mask="url(#mask0_267_43)">
<path d="M12 22C10.7833 21.85 9.575 21.5207 8.375 21.012C7.175 20.504 6.104 19.775 5.162 18.825C4.22067 17.875 3.45833 16.675 2.875 15.225C2.29167 13.775 2 12.0333 2 10V9H3C3.85 9 4.725 9.10833 5.625 9.325C6.525 9.54167 7.36667 9.86667 8.15 10.3C8.35 8.86667 8.80433 7.39567 9.513 5.887C10.221 4.379 11.05 3.08333 12 2C12.95 3.08333 13.7793 4.379 14.488 5.887C15.196 7.39567 15.65 8.86667 15.85 10.3C16.6333 9.86667 17.475 9.54167 18.375 9.325C19.275 9.10833 20.15 9 21 9H22V10C22 12.0333 21.7083 13.775 21.125 15.225C20.5417 16.675 19.779 17.875 18.837 18.825C17.8957 19.775 16.8293 20.504 15.638 21.012C14.446 21.5207 13.2333 21.85 12 22ZM11.95 19.95C11.7667 17.1833 10.946 15.0917 9.488 13.675C8.02933 12.2583 6.21667 11.3833 4.05 11.05C4.23333 13.9 5.07933 16.025 6.588 17.425C8.096 18.825 9.88333 19.6667 11.95 19.95ZM12 13.6C12.25 13.2333 12.5543 12.854 12.913 12.462C13.271 12.0707 13.6167 11.7333 13.95 11.45C13.9167 10.5 13.729 9.50833 13.387 8.475C13.0457 7.44167 12.5833 6.43333 12 5.45C11.4167 6.43333 10.9543 7.44167 10.613 8.475C10.271 9.50833 10.0833 10.5 10.05 11.45C10.3833 11.7333 10.7333 12.0707 11.1 12.462C11.4667 12.854 11.7667 13.2333 12 13.6ZM13.95 19.5C14.5667 19.3 15.2083 19.0083 15.875 18.625C16.5417 18.2417 17.1627 17.7207 17.738 17.062C18.3127 16.404 18.8043 15.5833 19.213 14.6C19.621 13.6167 19.8667 12.4333 19.95 11.05C18.3833 11.2833 17.0083 11.804 15.825 12.612C14.6417 13.4207 13.7333 14.45 13.1 15.7C13.3 16.2333 13.471 16.8167 13.613 17.45C13.7543 18.0833 13.8667 18.7667 13.95 19.5Z" fill="#575757"/>
</g>
</svg>
