<svg width="25" height="25" viewBox="0 0 25 25" fill="none" xmlns="http://www.w3.org/2000/svg">
<mask id="mask0_267_13" style="mask-type:alpha" maskUnits="userSpaceOnUse" x="0" y="0" width="25" height="25">
<rect x="0.788818" y="0.555664" width="24" height="24" fill="#D9D9D9"/>
</mask>
<g mask="url(#mask0_267_13)">
<path d="M4.78882 14.5557C4.23882 14.5557 3.76815 14.3597 3.37682 13.9677C2.98482 13.5763 2.78882 13.1057 2.78882 12.5557C2.78882 12.0057 2.98482 11.5347 3.37682 11.1427C3.76815 10.7513 4.23882 10.5557 4.78882 10.5557C5.33882 10.5557 5.80949 10.7513 6.20082 11.1427C6.59282 11.5347 6.78882 12.0057 6.78882 12.5557C6.78882 13.1057 6.59282 13.5763 6.20082 13.9677C5.80949 14.3597 5.33882 14.5557 4.78882 14.5557ZM6.43882 20.2557L5.03882 18.8557L9.38882 14.5057L10.7888 15.9057L6.43882 20.2557ZM9.43882 10.5557L5.08882 6.20566L6.48882 4.80566L10.8388 9.15566L9.43882 10.5557ZM12.7888 22.5557C12.2388 22.5557 11.7682 22.36 11.3768 21.9687C10.9848 21.5767 10.7888 21.1057 10.7888 20.5557C10.7888 20.0057 10.9848 19.5347 11.3768 19.1427C11.7682 18.7513 12.2388 18.5557 12.7888 18.5557C13.3388 18.5557 13.8098 18.7513 14.2018 19.1427C14.5932 19.5347 14.7888 20.0057 14.7888 20.5557C14.7888 21.1057 14.5932 21.5767 14.2018 21.9687C13.8098 22.36 13.3388 22.5557 12.7888 22.5557ZM12.7888 6.55566C12.2388 6.55566 11.7682 6.35966 11.3768 5.96766C10.9848 5.57633 10.7888 5.10566 10.7888 4.55566C10.7888 4.00566 10.9848 3.53466 11.3768 3.14266C11.7682 2.75133 12.2388 2.55566 12.7888 2.55566C13.3388 2.55566 13.8098 2.75133 14.2018 3.14266C14.5932 3.53466 14.7888 4.00566 14.7888 4.55566C14.7888 5.10566 14.5932 5.57633 14.2018 5.96766C13.8098 6.35966 13.3388 6.55566 12.7888 6.55566ZM16.1388 10.6057L14.7388 9.15566L19.1388 4.80566L20.5388 6.20566L16.1388 10.6057ZM19.1388 20.2557L14.7888 15.9057L16.1888 14.5057L20.5388 18.8557L19.1388 20.2557ZM20.7888 14.5557C20.2388 14.5557 19.7678 14.3597 19.3758 13.9677C18.9845 13.5763 18.7888 13.1057 18.7888 12.5557C18.7888 12.0057 18.9845 11.5347 19.3758 11.1427C19.7678 10.7513 20.2388 10.5557 20.7888 10.5557C21.3388 10.5557 21.8098 10.7513 22.2018 11.1427C22.5932 11.5347 22.7888 12.0057 22.7888 12.5557C22.7888 13.1057 22.5932 13.5763 22.2018 13.9677C21.8098 14.3597 21.3388 14.5557 20.7888 14.5557Z" fill="#575757"/>
</g>
</svg>
