<svg width="24" height="24" viewBox="0 0 24 24" fill="none" xmlns="http://www.w3.org/2000/svg">
<path d="M8.7734 13.0133C8.7734 13.364 8.66939 13.7069 8.47453 13.9985C8.27966 14.2902 8.0027 14.5175 7.67865 14.6517C7.3546 14.7859 6.99803 14.821 6.65403 14.7526C6.31002 14.6842 5.99403 14.5153 5.74602 14.2673C5.498 14.0193 5.3291 13.7033 5.26068 13.3593C5.19225 13.0153 5.22737 12.6587 5.36159 12.3346C5.49582 12.0106 5.72312 11.7336 6.01475 11.5388C6.30639 11.3439 6.64925 11.2399 7 11.2399C7.47033 11.2399 7.92141 11.4267 8.25398 11.7593C8.58656 12.0919 8.7734 12.543 8.7734 13.0133V13.0133ZM16.9956 11.2399C16.6448 11.2399 16.302 11.3439 16.0103 11.5388C15.7187 11.7336 15.4914 12.0106 15.3572 12.3346C15.2229 12.6587 15.1878 13.0153 15.2562 13.3593C15.3247 13.7033 15.4936 14.0193 15.7416 14.2673C15.9896 14.5153 16.3056 14.6842 16.6496 14.7526C16.9936 14.821 17.3502 14.7859 17.6742 14.6517C17.9983 14.5175 18.2752 14.2902 18.4701 13.9985C18.665 13.7069 18.769 13.364 18.769 13.0133C18.7688 12.5432 18.5821 12.0924 18.2497 11.76C17.9174 11.4275 17.4666 11.2406 16.9966 11.2404L16.9956 11.2399ZM21.9956 13.0133C21.9956 15.7731 19.7562 18.0106 16.9956 18.0106C15.7363 18.0126 14.5231 17.5374 13.6002 16.6805L12 18.4217L10.399 16.6786C9.47624 17.5363 8.26257 18.0123 7.00271 18.0106C4.24409 18.0106 2.00542 15.7731 2.00542 13.0133C2.00448 12.318 2.14902 11.6303 2.42975 10.9942C2.71048 10.3581 3.12118 9.78782 3.63547 9.31994L2 7.54063H5.6335C7.51222 6.26207 9.73217 5.57834 12.0047 5.57834C14.2772 5.57834 16.4971 6.26207 18.3759 7.54063H22L20.3648 9.31994C20.8792 9.78773 21.2901 10.358 21.571 10.9941C21.8519 11.6301 21.9966 12.318 21.9958 13.0133H21.9956ZM10.3833 13.0133C10.3833 12.3444 10.1849 11.6905 9.81326 11.1343C9.44163 10.5781 8.91342 10.1447 8.29542 9.88869C7.67742 9.63272 6.9974 9.56576 6.34134 9.69627C5.68529 9.82679 5.08267 10.1489 4.6097 10.6219C4.13672 11.0949 3.81463 11.6976 3.68417 12.3536C3.5537 13.0097 3.62071 13.6897 3.87672 14.3077C4.13274 14.9257 4.56626 15.4539 5.12246 15.8255C5.67866 16.197 6.33257 16.3954 7.00148 16.3953C7.44562 16.3953 7.88542 16.3079 8.29576 16.1379C8.7061 15.968 9.07894 15.7189 9.393 15.4048C9.70705 15.0908 9.95617 14.7179 10.1261 14.3076C10.2961 13.8972 10.3835 13.4574 10.3835 13.0133H10.3833ZM15.7527 7.96403C14.5634 7.46853 13.2878 7.21343 11.9994 7.21343C10.711 7.21343 9.43536 7.46853 8.24606 7.96403C10.3813 8.78127 12 10.6901 12 12.9158C12 10.6904 13.6185 8.78127 15.753 7.96428L15.7527 7.96403ZM20.3783 13.0133C20.3783 12.3444 20.18 11.6905 19.8083 11.1343C19.4367 10.5781 18.9085 10.1447 18.2905 9.88869C17.6725 9.63272 16.9925 9.56576 16.3364 9.69627C15.6804 9.82679 15.0777 10.1489 14.6048 10.6219C14.1318 11.0949 13.8097 11.6976 13.6792 12.3536C13.5488 13.0097 13.6158 13.6897 13.8718 14.3077C14.1278 14.9257 14.5613 15.4539 15.1175 15.8255C15.6737 16.197 16.3276 16.3954 16.9966 16.3953C17.8935 16.3953 18.7537 16.039 19.388 15.4047C20.0223 14.7705 20.3786 13.9103 20.3786 13.0133H20.3783Z" fill="black"/>
</svg>
