<svg width="24" height="24" viewBox="0 0 24 24" fill="none" xmlns="http://www.w3.org/2000/svg">
<path d="M9.25061 14.6189L10.1715 14.4061C10.1909 14.4016 10.2229 14.3943 10.262 14.3817C10.5161 14.3133 10.7338 14.149 10.8694 13.9232C11.0049 13.6975 11.0477 13.4279 10.9886 13.1715C10.9873 13.1659 10.9861 13.1605 10.9848 13.1549C10.9546 13.032 10.9016 12.9157 10.8286 12.8124C10.7254 12.6814 10.5977 12.5719 10.4526 12.4899C10.2818 12.3925 10.103 12.3097 9.91825 12.2424L8.90849 11.8738C8.34183 11.6632 7.7752 11.4578 7.20323 11.2575C6.83232 11.1255 6.51806 11.0097 6.24499 10.9252C6.19344 10.9093 6.13659 10.8934 6.09035 10.8775C5.76023 10.7763 5.52828 10.7343 5.33198 10.733C5.20088 10.7282 5.07028 10.752 4.94926 10.8028C4.82315 10.8572 4.70989 10.9375 4.61688 11.0387C4.57062 11.0913 4.52712 11.1463 4.48657 11.2033C4.44852 11.2616 4.41362 11.3217 4.38202 11.3837C4.34724 11.4502 4.31734 11.519 4.29258 11.5898C4.10517 12.1438 4.01181 12.7252 4.0164 13.31C4.01977 13.8386 4.03397 14.5171 4.32454 14.9771C4.39456 15.0951 4.48852 15.1971 4.60036 15.2766C4.80736 15.4195 5.01654 15.4384 5.23417 15.4541C5.55939 15.4774 5.87445 15.3975 6.18855 15.3249L9.24804 14.618L9.25061 14.6189Z" fill="black"/>
<path d="M19.5251 9.7295C19.2736 9.20179 18.9356 8.72002 18.525 8.3042C18.4719 8.25142 18.415 8.20257 18.3548 8.15807C18.2992 8.11635 18.2414 8.07757 18.1817 8.04189C18.1204 8.00824 18.0572 7.97791 17.9927 7.951C17.8649 7.90087 17.728 7.87827 17.591 7.88467C17.46 7.89212 17.332 7.92803 17.2162 7.98991C17.0406 8.07722 16.8505 8.21755 16.5978 8.45253C16.5628 8.48721 16.5189 8.52635 16.4796 8.56325C16.271 8.75932 16.039 9.00104 15.763 9.28253C15.3365 9.7135 14.9165 10.1468 14.4991 10.5849L13.7523 11.3594C13.6156 11.5009 13.491 11.6537 13.3801 11.8163C13.2855 11.9537 13.2186 12.1082 13.1831 12.2712C13.1626 12.3961 13.1656 12.5238 13.192 12.6477C13.1933 12.6533 13.1945 12.6586 13.1958 12.6643C13.2549 12.9208 13.411 13.1443 13.6315 13.2878C13.852 13.4313 14.1195 13.4835 14.3779 13.4335C14.4188 13.4276 14.4505 13.4205 14.4699 13.4158L18.4517 12.4958C18.7655 12.4232 19.0839 12.3568 19.3659 12.1932C19.5549 12.0835 19.7348 11.9748 19.8582 11.7555C19.9241 11.6351 19.964 11.5021 19.9753 11.3653C20.0364 10.8226 19.7531 10.2063 19.5251 9.7295Z" fill="black"/>
<path d="M12.3985 11.4039C12.687 11.0414 12.6863 10.5011 12.7121 10.0594C12.799 8.58357 12.8904 7.10754 12.9629 5.63089C12.9906 5.07158 13.0508 4.51985 13.0175 3.95629C12.9901 3.49137 12.9868 2.95758 12.6932 2.57605C12.1751 1.90324 11.0702 1.95853 10.3163 2.0629C10.0854 2.09495 9.85408 2.13805 9.62461 2.19314C9.39514 2.24823 9.16802 2.3084 8.9458 2.37956C8.22244 2.61651 7.2055 3.05145 7.03329 3.88495C6.93621 4.35615 7.16625 4.83816 7.34471 5.26817C7.56102 5.78944 7.85648 6.25899 8.12577 6.74968C8.83772 8.0451 9.56287 9.33244 10.286 10.6211C10.5019 11.0058 10.7373 11.4931 11.1551 11.6924C11.1827 11.7045 11.2109 11.7152 11.2396 11.7243C11.4269 11.7953 11.6312 11.809 11.8264 11.7636C11.8381 11.7609 11.8496 11.7583 11.8612 11.7555C12.0414 11.7065 12.2046 11.6086 12.3326 11.4724C12.3558 11.4507 12.3777 11.4279 12.3985 11.4039Z" fill="black"/>
<path d="M12.053 15.355C11.9404 15.1966 11.7805 15.0778 11.5964 15.0158C11.4122 14.9537 11.2131 14.9515 11.0275 15.0095C10.9839 15.024 10.9414 15.0416 10.9004 15.0622C10.8369 15.0945 10.7763 15.1323 10.7194 15.1751C10.5534 15.298 10.4137 15.4578 10.2865 15.618C10.2542 15.6588 10.2247 15.7132 10.1863 15.7482L9.54585 16.6292C9.18283 17.1227 8.82482 17.6175 8.46981 18.1202C8.23818 18.4447 8.03781 18.7187 7.87955 18.9612C7.84955 19.0069 7.81841 19.0579 7.78992 19.0985C7.60023 19.392 7.4928 19.6062 7.43766 19.7969C7.39625 19.9238 7.38314 20.058 7.39927 20.1904C7.4169 20.3283 7.46332 20.4608 7.53551 20.5796C7.5739 20.6391 7.61526 20.6967 7.65946 20.752C7.70539 20.8054 7.75417 20.8561 7.80558 20.9041C7.86049 20.9564 7.91922 21.0047 7.98128 21.0484C8.42335 21.3559 8.9073 21.5769 9.41636 21.7477C9.83997 21.8883 10.2803 21.9725 10.726 21.998C10.8018 22.0019 10.8778 22.0001 10.9534 21.9931C11.0234 21.987 11.0931 21.9772 11.1621 21.9638C11.2311 21.9477 11.2992 21.9278 11.3661 21.9045C11.4962 21.8558 11.6147 21.7804 11.714 21.6831C11.8079 21.589 11.8801 21.4756 11.9258 21.3507C11.9998 21.1662 12.0485 20.9318 12.0805 20.584C12.0833 20.5346 12.0903 20.4752 12.0953 20.4208C12.1205 20.1322 12.1321 19.7932 12.1507 19.3946C12.182 18.7815 12.2066 18.1712 12.226 17.5591C12.226 17.5591 12.2672 16.4714 12.2671 16.4707C12.2766 16.2201 12.2688 15.9423 12.1993 15.6927C12.1688 15.5731 12.1194 15.4591 12.053 15.355Z" fill="black"/>
<path d="M19.2824 17.0581C19.1487 16.9115 18.9593 16.7654 18.6606 16.5847C18.6175 16.5606 18.5669 16.5285 18.5203 16.5006C18.2716 16.351 17.9719 16.1936 17.6219 16.0035C17.0842 15.7083 16.5462 15.4206 16.003 15.1352L15.0434 14.6262C14.9937 14.6116 14.9432 14.5757 14.8963 14.5531C14.7119 14.4649 14.5164 14.3827 14.3136 14.3449C14.2436 14.3315 14.1727 14.3242 14.1016 14.3229C14.0556 14.3223 14.0098 14.3251 13.9642 14.3312C13.7724 14.361 13.5947 14.4505 13.4567 14.5872C13.3186 14.7239 13.2271 14.9006 13.1953 15.0923C13.1807 15.2142 13.1851 15.3376 13.2085 15.4581C13.2554 15.7135 13.3695 15.9661 13.4874 16.1873L13.9999 17.1478C14.285 17.6895 14.5736 18.2281 14.8695 18.7649C15.0603 19.1151 15.2191 19.4148 15.3679 19.6632C15.3961 19.7099 15.4281 19.7602 15.4522 19.8035C15.6333 20.1021 15.7788 20.2901 15.9263 20.4249C16.0218 20.5172 16.1364 20.5874 16.2619 20.6307C16.3938 20.6745 16.5335 20.69 16.6717 20.6763C16.7421 20.6679 16.812 20.6559 16.881 20.64C16.9491 20.6218 17.0161 20.6 17.0818 20.5747C17.1528 20.548 17.2218 20.5162 17.2881 20.4794C17.6777 20.261 18.0368 19.9921 18.3562 19.6797C18.7392 19.3028 19.0778 18.8918 19.3411 18.4213C19.3778 18.3547 19.4094 18.2856 19.436 18.2144C19.4609 18.1486 19.4824 18.0815 19.5004 18.0135C19.5159 17.9444 19.5279 17.8744 19.5362 17.8041C19.5493 17.6659 19.5333 17.5265 19.4891 17.3949C19.4456 17.2689 19.3751 17.1539 19.2824 17.0581Z" fill="black"/>
</svg>
