<svg width="120" height="120" viewBox="0 0 120 120" fill="none" xmlns="http://www.w3.org/2000/svg">
<circle cx="60" cy="60" r="60" fill="#100F0F"/>
<path d="M52.368 102.517C50.6448 102.276 49.513 102.917 49.3232 104.272C49.1801 105.294 49.6475 106.195 51.2863 106.607C49.9353 106.563 49.2686 107.257 49.1487 108.113C48.979 109.325 49.6722 110.258 51.1934 110.471L54.5565 110.942L55.6718 102.98L52.368 102.517ZM51.6781 109.606C50.7273 109.473 50.1034 109.082 50.2366 108.132C50.3714 107.169 51.065 106.975 51.9801 107.104L54.0003 107.387L53.6508 109.882L51.6781 109.606ZM51.9911 106.16C50.9572 106.015 50.2396 105.515 50.3745 104.552C50.5076 103.602 51.1465 103.279 52.4062 103.455L54.5097 103.75L54.1302 106.46L51.9911 106.16Z" fill="#EEEEEE"/>
<path d="M44.7165 100.324C43.2028 99.7813 41.7287 100.515 41.1091 102.243C40.4895 103.971 41.1617 105.474 42.6753 106.017C44.189 106.56 45.6518 105.822 46.2714 104.094C46.891 102.366 46.2301 100.867 44.7165 100.324ZM44.4208 101.149C45.3471 101.481 45.7601 102.355 45.266 103.733C44.7679 105.123 43.8973 105.525 42.971 105.192C42.0334 104.856 41.605 103.989 42.1032 102.599C42.5972 101.221 43.4833 100.812 44.4208 101.149Z" fill="#EEEEEE"/>
<path d="M37.2181 96.6614C35.8398 95.8331 34.2508 96.2642 33.305 97.8379C32.3593 99.4116 32.7245 101.017 34.1028 101.845C35.481 102.674 37.0598 102.236 38.0055 100.663C38.9513 99.089 38.5964 97.4897 37.2181 96.6614ZM36.7669 97.4123C37.6103 97.9191 37.8442 98.8577 37.0901 100.113C36.3298 101.378 35.3974 101.601 34.554 101.094C33.7003 100.581 33.4499 99.6469 34.2102 98.3818C34.9643 97.127 35.9132 96.8992 36.7669 97.4123Z" fill="#EEEEEE"/>
<path d="M31.4502 92.5555L30.0858 94.0558L28.8128 94.0822L29.3728 90.6662L28.4407 89.8185L27.8441 94.0772L24.5596 94.1395L25.5273 95.0196L28.166 94.9539L29.3615 94.9057L28.7859 95.4852L26.0408 98.5036L26.8132 99.206L32.2226 93.2579L31.4502 92.5555Z" fill="#EEEEEE"/>
<path d="M22.9516 82.421L20.5613 82.7195L18.8866 79.628L20.4424 77.7889L19.8937 76.776L14.3676 83.4544L14.8648 84.3723L23.4775 83.3917L22.9516 82.421ZM16.8661 83.1791L15.5638 83.4205L16.4831 82.4721L18.2456 80.3847L19.5773 82.8431L16.8661 83.1791Z" fill="#EEEEEE"/>
<path d="M17.2927 66.1408L10.2677 67.2753L9.86215 64.7639L8.94997 64.9112L9.92568 70.9529L10.8379 70.8056L10.4323 68.2941L17.4573 67.1596L17.2927 66.1408Z" fill="#EEEEEE"/>
<path d="M16.9438 59.7274L13.6571 59.6335C12.6615 59.605 11.8051 58.9083 11.8263 58.1646C11.8383 57.7448 12.1313 57.5731 12.4672 57.5827C12.7911 57.5919 13.1465 57.7581 13.3089 57.9548L13.3415 56.8153C13.2003 56.7152 12.8442 56.573 12.3524 56.559C11.5367 56.5357 11.0758 57.1227 11.0579 57.7465C11.0298 58.7301 11.7924 59.3521 12.6855 59.6057L11.1381 59.5615L11.1083 60.6051L16.9139 60.7709L16.9438 59.7274Z" fill="#EEEEEE"/>
<path d="M11.1609 50.7871L9.88691 50.5494L9.69545 51.5757L10.9695 51.8134L11.1609 50.7871ZM17.7906 52.0238L12.0811 50.9587L11.8896 51.985L17.5991 53.0501L17.7906 52.0238Z" fill="#EEEEEE"/>
<path d="M21.3259 47.4955L17.8183 46.2211C18.7113 46.3285 19.5991 46.0637 19.9802 45.0148C20.4801 43.6388 19.6637 42.3719 17.938 41.7449C16.2124 41.1179 14.7844 41.5694 14.2844 42.9454C13.9033 43.9944 14.4141 44.7672 15.1678 45.2581L13.7693 44.75L13.4127 45.7312L20.9694 48.4768L21.3259 47.4955ZM16.8822 45.881L16.1039 45.5982C15.2016 45.2704 14.6079 44.6206 14.9849 43.5829C15.3004 42.7145 16.1901 42.2334 17.5774 42.7374C18.976 43.2456 19.3494 44.1856 19.0339 45.054C18.6569 46.0917 17.7845 46.2088 16.8822 45.881Z" fill="#EEEEEE"/>
<path d="M27.3271 32.6342C28.4277 31.2866 28.467 29.9863 27.4075 29.1209C26.6082 28.4682 25.5949 28.3998 24.3929 29.5872C25.1315 28.4551 24.8841 27.5249 24.2149 26.9784C23.2669 26.2042 22.1094 26.3124 21.1378 27.5021L18.9897 30.1324L25.2169 35.218L27.3271 32.6342ZM21.6258 28.3654C22.233 27.6219 22.8904 27.2911 23.634 27.8984C24.3868 28.5132 24.1924 29.2066 23.6079 29.9222L22.3176 31.5023L20.3657 29.9083L21.6258 28.3654ZM24.4088 30.4214C25.0692 29.6128 25.8693 29.2591 26.6221 29.8739C27.3657 30.4812 27.3097 31.1947 26.5051 32.1799L25.1616 33.825L23.0425 32.0943L24.4088 30.4214Z" fill="#EEEEEE"/>
<path d="M33.1728 27.2321C34.4222 26.2199 34.5602 24.5792 33.4045 23.1526C32.2488 21.726 30.6152 21.5205 29.3657 22.5327C28.1163 23.5449 27.9876 25.178 29.1433 26.6046C30.2991 28.0312 31.9234 28.2443 33.1728 27.2321ZM32.6214 26.5514C31.8568 27.1708 30.8947 27.0699 29.9732 25.9324C29.0441 24.7855 29.1526 23.8328 29.9171 23.2133C30.6911 22.5864 31.6549 22.6704 32.584 23.8173C33.5055 24.9549 33.3953 25.9245 32.6214 26.5514Z" fill="#EEEEEE"/>
<path d="M40.1951 22.7235C41.6184 21.9752 42.0747 20.3932 41.2203 18.7681C40.366 17.143 38.8041 16.6219 37.3808 17.3702C35.9575 18.1184 35.5119 19.6948 36.3662 21.3199C37.2205 22.9451 38.7718 23.4717 40.1951 22.7235ZM39.7875 21.9481C38.9165 22.406 37.9928 22.1188 37.3115 20.823C36.6247 19.5165 36.9175 18.6034 37.7884 18.1455C38.67 17.6821 39.5988 17.953 40.2856 19.2595C40.9668 20.5553 40.6691 21.4846 39.7875 21.9481Z" fill="#EEEEEE"/>
<path d="M46.6982 19.9241L46.1239 17.9792L46.762 16.8774L49.3912 19.129L50.5997 18.7721L47.269 16.052L48.9204 13.2121L47.6659 13.5825L46.3526 15.8722L45.7733 16.919L45.5768 16.1263L44.4213 12.2133L43.4201 12.5089L45.6969 20.2198L46.6982 19.9241Z" fill="#EEEEEE"/>
<path d="M59.7717 17.9195L60.7571 15.7213L64.2688 15.8943L65.0333 18.1787L66.1839 18.2354L63.3434 10.0457L62.3007 9.99433L58.6691 17.8652L59.7717 17.9195ZM62.282 12.3242L62.7515 11.0858L63.0851 12.3638L63.9547 14.9537L61.1621 14.8161L62.282 12.3242Z" fill="#EEEEEE"/>
<path d="M76.6245 21.5317L79.3007 14.9381L81.6579 15.8948L82.0054 15.0387L76.3347 12.7371L75.9872 13.5932L78.3445 14.55L75.6683 21.1436L76.6245 21.5317Z" fill="#EEEEEE"/>
<path d="M82.2877 24.5619L84.0737 21.8013C84.6147 20.965 85.6548 20.5946 86.2795 20.9987C86.6321 21.2268 86.6268 21.5664 86.4443 21.8485C86.2683 22.1206 85.9418 22.3381 85.6893 22.3748L86.6464 22.9941C86.8053 22.9253 87.1116 22.6948 87.3789 22.2817C87.8221 21.5966 87.5596 20.8979 87.0356 20.5589C86.2095 20.0244 85.282 20.3534 84.6017 20.9852L85.4426 19.6855L84.566 19.1184L81.4112 23.9948L82.2877 24.5619Z" fill="#EEEEEE"/>
<path d="M92.9309 24.2588L93.7953 23.2932L93.0174 22.5969L92.153 23.5626L92.9309 24.2588ZM88.4331 29.2839L92.3067 24.9563L91.5288 24.26L87.6552 28.5876L88.4331 29.2839Z" fill="#EEEEEE"/>
<path d="M90.4689 34.656L93.3787 32.3191C92.8235 33.0267 92.589 33.923 93.2878 34.7931C94.2045 35.9346 95.7112 35.8942 97.1427 34.7446C98.5742 33.5949 98.9294 32.14 98.0127 30.9985C97.3139 30.1284 96.3882 30.1639 95.5774 30.5533L96.7376 29.6216L96.0839 28.8076L89.8152 33.842L90.4689 34.656ZM94.1553 31.6955L94.8009 31.177C95.5494 30.5759 96.413 30.4056 97.1043 31.2664C97.6829 31.9868 97.6323 32.997 96.4815 33.9212C95.3213 34.853 94.324 34.6843 93.7454 33.9639C93.0541 33.1031 93.4068 32.2966 94.1553 31.6955Z" fill="#EEEEEE"/>
<path d="M100.057 47.4985C100.638 49.1387 101.729 49.8472 103.019 49.3906C103.992 49.0462 104.576 48.2155 104.185 46.5718C104.769 47.7907 105.693 48.062 106.507 47.7736C107.661 47.3651 108.169 46.3195 107.656 44.8716L106.523 41.6703L98.9441 44.3538L100.057 47.4985ZM106.665 44.8406C106.986 45.7456 106.927 46.4792 106.022 46.7996C105.106 47.124 104.614 46.598 104.306 45.727L103.625 43.8039L106 42.9629L106.665 44.8406ZM103.464 46.1525C103.812 47.1366 103.699 48.0041 102.783 48.3285C101.878 48.6489 101.297 48.2308 100.872 47.0317L100.164 45.0295L102.743 44.1163L103.464 46.1525Z" fill="#EEEEEE"/>
<path d="M101.641 55.299C101.858 56.8924 103.189 57.8618 105.008 57.6143C106.827 57.3669 107.851 56.0771 107.634 54.4838C107.417 52.8905 106.088 51.9329 104.269 52.1804C102.45 52.4279 101.424 53.7057 101.641 55.299ZM102.509 55.181C102.377 54.2059 102.962 53.436 104.413 53.2386C105.875 53.0397 106.633 53.6269 106.766 54.6019C106.9 55.5888 106.328 56.369 104.866 56.568C103.415 56.7653 102.644 56.1679 102.509 55.181Z" fill="#EEEEEE"/>
<path d="M101.851 63.6415C101.751 65.2464 102.867 66.4575 104.699 66.5706C106.532 66.6838 107.788 65.6192 107.887 64.0142C107.986 62.4093 106.87 61.2102 105.037 61.097C103.205 60.9839 101.95 62.0365 101.851 63.6415ZM102.725 63.6955C102.786 62.7133 103.51 62.0728 104.972 62.163C106.445 62.254 107.073 62.9781 107.013 63.9602C106.951 64.9543 106.238 65.6076 104.765 65.5166C103.303 65.4264 102.664 64.6896 102.725 63.6955Z" fill="#EEEEEE"/>
<path d="M100.868 70.6529L102.829 71.1715L103.439 72.2887L100.15 73.3676L99.8281 74.5857L103.882 73.1505L105.452 76.0359L105.787 74.7714L104.511 72.4605L103.917 71.422L104.697 71.6655L108.641 72.7086L108.908 71.6993L101.135 69.6436L100.868 70.6529Z" fill="#EEEEEE"/>
<path d="M95.7968 82.8683L97.1643 84.8514L95.1939 87.7634L92.8445 87.2313L92.1989 88.1854L100.673 90.0078L101.259 89.1432L96.4155 81.954L95.7968 82.8683ZM99.2766 87.918L100.092 88.962L98.8261 88.5839L96.1609 87.9831L97.7278 85.6674L99.2766 87.918Z" fill="#EEEEEE"/>
<path d="M83.9626 95.3991L88.2098 101.109L86.1686 102.627L86.7201 103.368L91.6305 99.7157L91.079 98.9743L89.0378 100.493L84.7906 94.7832L83.9626 95.3991Z" fill="#EEEEEE"/>
<path d="M78.4333 98.6672L79.8661 101.627C80.3001 102.523 80.077 103.604 79.4073 103.929C79.0293 104.112 78.7418 103.931 78.5954 103.628C78.4542 103.337 78.4377 102.945 78.5373 102.71L77.5113 103.207C77.4876 103.378 77.5257 103.76 77.7401 104.202C78.0957 104.937 78.8292 105.075 79.3908 104.803C80.2765 104.374 80.4766 103.411 80.2896 102.501L80.9642 103.895L81.9039 103.44L79.3729 98.2122L78.4333 98.6672Z" fill="#EEEEEE"/>
<path d="M73.1686 107.922L73.5454 109.162L74.5443 108.858L74.1675 107.618L73.1686 107.922ZM71.2077 101.469L72.8965 107.026L73.8954 106.723L72.2066 101.166L71.2077 101.469Z" fill="#EEEEEE"/>
<path d="M65.5592 100.422L66.0465 104.122C65.7298 103.28 65.0854 102.614 63.979 102.76C62.5275 102.951 61.78 104.26 62.0198 106.08C62.2595 107.9 63.3188 108.959 64.7703 108.768C65.8767 108.622 66.3269 107.813 66.4147 106.917L66.609 108.393L67.6441 108.256L66.5942 100.285L65.5592 100.422ZM66.1765 105.109L66.2847 105.93C66.41 106.882 66.1074 107.708 65.0128 107.852C64.0967 107.973 63.2595 107.406 63.0667 105.942C62.8724 104.467 63.5342 103.702 64.4503 103.581C65.5448 103.437 66.0512 104.157 66.1765 105.109Z" fill="#EEEEEE"/>
<path fill-rule="evenodd" clip-rule="evenodd" d="M59.2939 85.924C62.5433 85.7267 65.6133 84.6468 68.6653 83.5389C71.7416 82.4221 74.9371 81.4258 77.4303 79.3401C79.9426 77.2383 81.494 74.3071 83.0865 71.4742C84.7148 68.5777 86.6479 65.6909 86.9535 62.3994C87.259 59.1088 86.0043 55.8899 84.8205 52.795C83.6807 49.8151 82.1371 47.0184 80.1164 44.5244C78.1157 42.0553 75.7027 39.9709 73.0182 38.2286C70.2939 36.4606 67.4239 34.7787 64.2078 34.1999C60.9939 33.6214 57.7473 34.4371 54.5135 34.8979C51.1969 35.3706 47.6027 35.2153 44.7721 36.9696C41.9426 38.7231 40.6081 42.0016 38.7037 44.6958C36.8524 47.3147 34.5562 49.7053 33.6152 52.7527C32.6708 55.8113 33.0298 59.0649 33.2835 62.25C33.5392 65.4608 33.6181 68.7934 35.121 71.6593C36.621 74.5195 39.4473 76.4034 41.8543 78.5931C44.2774 80.7975 46.4195 83.4264 49.4605 84.7047C52.5218 85.9915 55.9679 86.1259 59.2939 85.924Z" stroke="#EEEEEE"/>
<mask id="mask0_17_156" style="mask-type:alpha" maskUnits="userSpaceOnUse" x="48" y="48" width="24" height="24">
<rect x="48" y="48" width="24" height="24" fill="#D9D9D9"/>
</mask>
<g mask="url(#mask0_17_156)">
<path d="M62.05 65.65L61 64.575L64.825 60.75H52.3V59.25H64.825L61 55.425L62.05 54.35L67.7 60L62.05 65.65Z" fill="#EEEEEE"/>
</g>
</svg>
